{
	"asset":{
		"generator":"Khronos glTF Blender I/O v4.1.63",
		"version":"2.0"
	},
	"extensionsUsed":[
		"KHR_texture_transform"
	],
	"extensionsRequired":[
		"KHR_texture_transform"
	],
	"scene":0,
	"scenes":[
		{
			"name":"Scene",
			"nodes":[
				9
			]
		}
	],
	"nodes":[
		{
			"mesh":0,
			"name":"Scene Brdige",
			"scale":[
				0.32781821489334106,
				2.448532819747925,
				0.32781821489334106
			],
			"translation":[
				3.736189126968384,
				1.2364205121994019,
				-0.05997657775878906
			]
		},
		{
			"mesh":1,
			"name":"Wall And Column",
			"translation":[
				-3.9975533485412598,
				1.9625942707061768,
				-3.1012916564941406
			]
		},
		{
			"mesh":2,
			"name":"Metal Barrier Thin.001",
			"scale":[
				0.32781821489334106,
				2.448532819747925,
				0.32781821489334106
			],
			"translation":[
				3.736189126968384,
				1.2341701984405518,
				-0.05997657775878906
			]
		},
		{
			"mesh":3,
			"name":"Metal Barrier Thin",
			"scale":[
				0.32781821489334106,
				2.448532819747925,
				0.32781821489334106
			],
			"translation":[
				-3.9744865894317627,
				1.0596715211868286,
				4.614065647125244
			]
		},
		{
			"mesh":4,
			"name":"Extra Barrier",
			"rotation":[
				0,
				0,
				-1,
				0
			],
			"scale":[
				-0.07237863540649414,
				-0.3013237416744232,
				-1.50797700881958
			],
			"translation":[
				3.994258165359497,
				0.18157051503658295,
				4.423804759979248
			]
		},
		{
			"mesh":5,
			"name":"Barrier Thin",
			"scale":[
				0.016093529760837555,
				0.010513107292354107,
				1.6473164558410645
			],
			"translation":[
				3.883103370666504,
				0.33453619480133057,
				4.289364814758301
			]
		},
		{
			"mesh":6,
			"name":"Metal Case",
			"scale":[
				0.0635269433259964,
				0.26970887184143066,
				0.26970887184143066
			],
			"translation":[
				3.9133055210113525,
				0.44940507411956787,
				5.559114933013916
			]
		},
		{
			"mesh":7,
			"name":"Road",
			"scale":[
				3.925076723098755,
				2.296177864074707,
				5.981930255889893
			],
			"translation":[
				-3.925076723098755,
				0.2196314036846161,
				0
			]
		},
		{
			"children":[
				0,
				1,
				2,
				3,
				4,
				5,
				6,
				7
			],
			"name":"Collection"
		},
		{
			"children":[
				8
			],
			"name":"Scene Collection"
		}
	],
	"materials":[
		{
			"doubleSided":true,
			"name":"Material.001",
			"normalTexture":{
				"index":0
			},
			"pbrMetallicRoughness":{
				"baseColorTexture":{
					"index":1
				},
				"metallicFactor":0,
				"metallicRoughnessTexture":{
					"index":2
				}
			}
		},
		{
			"doubleSided":true,
			"name":"Material.002",
			"normalTexture":{
				"extensions":{
					"KHR_texture_transform":{
						"offset":[
							0,
							-4
						],
						"scale":[
							5,
							5
						]
					}
				},
				"index":3
			},
			"pbrMetallicRoughness":{
				"baseColorTexture":{
					"extensions":{
						"KHR_texture_transform":{
							"offset":[
								0,
								-4
							],
							"scale":[
								5,
								5
							]
						}
					},
					"index":4
				},
				"metallicFactor":0.8327272534370422,
				"metallicRoughnessTexture":{
					"extensions":{
						"KHR_texture_transform":{
							"offset":[
								0,
								-4
							],
							"scale":[
								5,
								5
							]
						}
					},
					"index":5
				}
			}
		},
		{
			"doubleSided":true,
			"name":"Material.004",
			"normalTexture":{
				"extensions":{
					"KHR_texture_transform":{
						"offset":[
							0,
							-4
						],
						"scale":[
							5,
							5
						]
					}
				},
				"index":6
			},
			"pbrMetallicRoughness":{
				"baseColorFactor":[
					0.15413649380207062,
					0.15413649380207062,
					0.15413649380207062,
					1
				],
				"metallicFactor":0,
				"metallicRoughnessTexture":{
					"extensions":{
						"KHR_texture_transform":{
							"offset":[
								0,
								-4
							],
							"scale":[
								5,
								5
							]
						}
					},
					"index":7
				}
			}
		},
		{
			"doubleSided":true,
			"name":"Material.006",
			"normalTexture":{
				"extensions":{
					"KHR_texture_transform":{
						"offset":[
							0,
							-4
						],
						"scale":[
							5,
							5
						]
					}
				},
				"index":8
			},
			"pbrMetallicRoughness":{
				"baseColorTexture":{
					"extensions":{
						"KHR_texture_transform":{
							"offset":[
								0,
								-4
							],
							"scale":[
								5,
								5
							]
						}
					},
					"index":9
				},
				"metallicFactor":0,
				"metallicRoughnessTexture":{
					"extensions":{
						"KHR_texture_transform":{
							"offset":[
								0,
								-4
							],
							"scale":[
								5,
								5
							]
						}
					},
					"index":10
				}
			}
		},
		{
			"doubleSided":true,
			"name":"Material.008",
			"normalTexture":{
				"extensions":{
					"KHR_texture_transform":{
						"offset":[
							0,
							-2
						],
						"scale":[
							3,
							3
						]
					}
				},
				"index":11
			},
			"pbrMetallicRoughness":{
				"baseColorTexture":{
					"extensions":{
						"KHR_texture_transform":{
							"offset":[
								0,
								-2
							],
							"scale":[
								3,
								3
							]
						}
					},
					"index":12
				},
				"metallicFactor":0,
				"metallicRoughnessTexture":{
					"extensions":{
						"KHR_texture_transform":{
							"offset":[
								0,
								-2
							],
							"scale":[
								3,
								3
							]
						}
					},
					"index":13
				}
			}
		},
		{
			"doubleSided":true,
			"name":"Material.009",
			"pbrMetallicRoughness":{
				"baseColorFactor":[
					0.042166873812675476,
					0.042166873812675476,
					0.042166873812675476,
					1
				],
				"roughnessFactor":0.5
			}
		},
		{
			"doubleSided":true,
			"name":"Material.007",
			"normalTexture":{
				"index":14
			},
			"pbrMetallicRoughness":{
				"baseColorTexture":{
					"index":15
				},
				"metallicFactor":0,
				"metallicRoughnessTexture":{
					"index":16
				}
			}
		},
		{
			"doubleSided":true,
			"name":"Material.003",
			"normalTexture":{
				"index":17
			},
			"pbrMetallicRoughness":{
				"baseColorTexture":{
					"index":18
				},
				"metallicFactor":0,
				"metallicRoughnessTexture":{
					"index":19
				}
			}
		},
		{
			"doubleSided":true,
			"name":"Material.032",
			"normalTexture":{
				"extensions":{
					"KHR_texture_transform":{
						"offset":[
							0,
							-4
						],
						"scale":[
							5,
							5
						]
					}
				},
				"index":20
			},
			"pbrMetallicRoughness":{
				"baseColorTexture":{
					"extensions":{
						"KHR_texture_transform":{
							"offset":[
								0,
								-4
							],
							"scale":[
								5,
								5
							]
						}
					},
					"index":21
				},
				"metallicFactor":0.9309090971946716,
				"metallicRoughnessTexture":{
					"extensions":{
						"KHR_texture_transform":{
							"offset":[
								0,
								-4
							],
							"scale":[
								5,
								5
							]
						}
					},
					"index":22
				}
			}
		},
		{
			"doubleSided":true,
			"name":"Material.033",
			"normalTexture":{
				"extensions":{
					"KHR_texture_transform":{
						"offset":[
							0,
							-9
						],
						"scale":[
							10,
							10
						]
					}
				},
				"index":23
			},
			"pbrMetallicRoughness":{
				"baseColorTexture":{
					"extensions":{
						"KHR_texture_transform":{
							"offset":[
								0,
								-9
							],
							"scale":[
								10,
								10
							]
						}
					},
					"index":24
				},
				"metallicFactor":0.7963636517524719,
				"metallicRoughnessTexture":{
					"extensions":{
						"KHR_texture_transform":{
							"offset":[
								0,
								-9
							],
							"scale":[
								10,
								10
							]
						}
					},
					"index":25
				}
			}
		},
		{
			"doubleSided":true,
			"name":"Material.005",
			"normalTexture":{
				"index":26
			},
			"pbrMetallicRoughness":{
				"baseColorTexture":{
					"index":27
				},
				"metallicFactor":0.27272728085517883,
				"metallicRoughnessTexture":{
					"index":28
				}
			}
		}
	],
	"meshes":[
		{
			"name":"Cube.003",
			"primitives":[
				{
					"attributes":{
						"POSITION":0,
						"NORMAL":1,
						"TEXCOORD_0":2
					},
					"indices":3,
					"material":0
				},
				{
					"attributes":{
						"POSITION":0,
						"NORMAL":1,
						"TEXCOORD_0":2
					},
					"indices":4,
					"material":1
				},
				{
					"attributes":{
						"POSITION":0,
						"NORMAL":1,
						"TEXCOORD_0":2
					},
					"indices":5,
					"material":2
				},
				{
					"attributes":{
						"POSITION":0,
						"NORMAL":1,
						"TEXCOORD_0":2
					},
					"indices":6,
					"material":3
				}
			]
		},
		{
			"name":"Cube.015",
			"primitives":[
				{
					"attributes":{
						"POSITION":7,
						"NORMAL":8,
						"TEXCOORD_0":9,
						"TANGENT":10
					},
					"indices":11,
					"material":4
				},
				{
					"attributes":{
						"POSITION":7,
						"NORMAL":8,
						"TEXCOORD_0":9,
						"TANGENT":10
					},
					"indices":12,
					"material":5
				},
				{
					"attributes":{
						"POSITION":7,
						"NORMAL":8,
						"TEXCOORD_0":9,
						"TANGENT":10
					},
					"indices":13,
					"material":6
				}
			]
		},
		{
			"name":"Cube.017",
			"primitives":[
				{
					"attributes":{
						"POSITION":14,
						"NORMAL":15,
						"TEXCOORD_0":16
					},
					"indices":17,
					"material":1
				}
			]
		},
		{
			"name":"Cube.018",
			"primitives":[
				{
					"attributes":{
						"POSITION":18,
						"NORMAL":19,
						"TEXCOORD_0":20
					},
					"indices":21,
					"material":1
				}
			]
		},
		{
			"name":"Cube",
			"primitives":[
				{
					"attributes":{
						"POSITION":22,
						"NORMAL":23,
						"TEXCOORD_0":24,
						"TANGENT":25
					},
					"indices":26,
					"material":7
				}
			]
		},
		{
			"name":"Cube.001",
			"primitives":[
				{
					"attributes":{
						"POSITION":27,
						"NORMAL":28,
						"TEXCOORD_0":29,
						"TANGENT":30
					},
					"indices":31,
					"material":8
				}
			]
		},
		{
			"name":"Cube.002",
			"primitives":[
				{
					"attributes":{
						"POSITION":32,
						"NORMAL":33,
						"TEXCOORD_0":34,
						"TANGENT":35
					},
					"indices":36,
					"material":9
				}
			]
		},
		{
			"name":"Plane",
			"primitives":[
				{
					"attributes":{
						"POSITION":37,
						"NORMAL":38,
						"TEXCOORD_0":39,
						"TANGENT":40
					},
					"indices":41,
					"material":10
				}
			]
		}
	],
	"textures":[
		{
			"sampler":0,
			"source":0
		},
		{
			"sampler":0,
			"source":0
		},
		{
			"sampler":0,
			"source":1
		},
		{
			"sampler":0,
			"source":2
		},
		{
			"sampler":0,
			"source":2
		},
		{
			"sampler":0,
			"source":3
		},
		{
			"sampler":0,
			"source":4
		},
		{
			"sampler":0,
			"source":5
		},
		{
			"sampler":0,
			"source":2
		},
		{
			"sampler":0,
			"source":2
		},
		{
			"sampler":0,
			"source":3
		},
		{
			"sampler":0,
			"source":6
		},
		{
			"sampler":0,
			"source":6
		},
		{
			"sampler":0,
			"source":7
		},
		{
			"sampler":0,
			"source":0
		},
		{
			"sampler":0,
			"source":0
		},
		{
			"sampler":0,
			"source":1
		},
		{
			"sampler":0,
			"source":0
		},
		{
			"sampler":0,
			"source":0
		},
		{
			"sampler":0,
			"source":1
		},
		{
			"sampler":0,
			"source":2
		},
		{
			"sampler":0,
			"source":2
		},
		{
			"sampler":0,
			"source":3
		},
		{
			"sampler":0,
			"source":2
		},
		{
			"sampler":0,
			"source":2
		},
		{
			"sampler":0,
			"source":3
		},
		{
			"sampler":0,
			"source":8
		},
		{
			"sampler":0,
			"source":9
		},
		{
			"sampler":0,
			"source":10
		}
	],
	"images":[
		{
			"mimeType":"image/jpeg",
			"name":"TexturesCom_ConcreteBare0428_1_M",
			"uri":"TexturesCom_ConcreteBare0428_1_M.jpg"
		},
		{
			"mimeType":"image/png",
			"name":"TexturesCom_ConcreteBare0428_1_M",
			"uri":"TexturesCom_ConcreteBare0428_1_M.png"
		},
		{
			"mimeType":"image/png",
			"name":"TexturesCom_MetalBare0262_2_seamless_S",
			"uri":"TexturesCom_MetalBare0262_2_seamless_S.png"
		},
		{
			"mimeType":"image/png",
			"name":"TexturesCom_MetalBare0262_2_seamless_S",
			"uri":"TexturesCom_MetalBare0262_2_seamless_S-1.png"
		},
		{
			"mimeType":"image/jpeg",
			"name":"slnnebuc_4K_Roughness",
			"uri":"slnnebuc_4K_Roughness.jpg"
		},
		{
			"mimeType":"image/png",
			"name":"slnnebuc_4K_Roughness",
			"uri":"slnnebuc_4K_Roughness.png"
		},
		{
			"mimeType":"image/jpeg",
			"name":"TexturesCom_ConcreteNew0063_2_seamless_S",
			"uri":"TexturesCom_ConcreteNew0063_2_seamless_S.jpg"
		},
		{
			"mimeType":"image/png",
			"name":"TexturesCom_ConcreteNew0063_2_seamless_S",
			"uri":"TexturesCom_ConcreteNew0063_2_seamless_S.png"
		},
		{
			"mimeType":"image/png",
			"name":"ThreeLaneRoadCracks01_4K_Normal",
			"uri":"ThreeLaneRoadCracks01_4K_Normal.png"
		},
		{
			"mimeType":"image/png",
			"name":"ThreeLaneRoadCracks01_4K_BaseColor",
			"uri":"ThreeLaneRoadCracks01_4K_BaseColor.png"
		},
		{
			"mimeType":"image/png",
			"name":"ThreeLaneRoadCracks01_4K_Roughness",
			"uri":"ThreeLaneRoadCracks01_4K_Roughness.png"
		}
	],
	"accessors":[
		{
			"bufferView":0,
			"componentType":5126,
			"count":125767,
			"max":[
				3.3646483421325684,
				1.5160636901855469,
				18.495454788208008
			],
			"min":[
				-50.1055908203125,
				-0.6322169303894043,
				-718.0032348632812
			],
			"type":"VEC3"
		},
		{
			"bufferView":1,
			"componentType":5126,
			"count":125767,
			"type":"VEC3"
		},
		{
			"bufferView":2,
			"componentType":5126,
			"count":125767,
			"type":"VEC2"
		},
		{
			"bufferView":3,
			"componentType":5125,
			"count":17520,
			"type":"SCALAR"
		},
		{
			"bufferView":4,
			"componentType":5125,
			"count":389670,
			"type":"SCALAR"
		},
		{
			"bufferView":5,
			"componentType":5125,
			"count":18720,
			"type":"SCALAR"
		},
		{
			"bufferView":6,
			"componentType":5125,
			"count":12960,
			"type":"SCALAR"
		},
		{
			"bufferView":7,
			"componentType":5126,
			"count":27898,
			"max":[
				0.25053468346595764,
				3.2308850288391113,
				9.061236381530762
			],
			"min":[
				-0.25053468346595764,
				-2.942190170288086,
				-207.5001983642578
			],
			"type":"VEC3"
		},
		{
			"bufferView":8,
			"componentType":5126,
			"count":27898,
			"type":"VEC3"
		},
		{
			"bufferView":9,
			"componentType":5126,
			"count":27898,
			"type":"VEC2"
		},
		{
			"bufferView":10,
			"componentType":5126,
			"count":27898,
			"type":"VEC4"
		},
		{
			"bufferView":11,
			"componentType":5123,
			"count":28080,
			"type":"SCALAR"
		},
		{
			"bufferView":12,
			"componentType":5123,
			"count":9120,
			"type":"SCALAR"
		},
		{
			"bufferView":13,
			"componentType":5123,
			"count":4800,
			"type":"SCALAR"
		},
		{
			"bufferView":14,
			"componentType":5126,
			"count":521,
			"max":[
				0.8886744976043701,
				-0.11214554309844971,
				18.27057647705078
			],
			"min":[
				0.6896231174468994,
				-0.15077552199363708,
				12.169634819030762
			],
			"type":"VEC3"
		},
		{
			"bufferView":15,
			"componentType":5126,
			"count":521,
			"type":"VEC3"
		},
		{
			"bufferView":16,
			"componentType":5126,
			"count":521,
			"type":"VEC2"
		},
		{
			"bufferView":17,
			"componentType":5123,
			"count":2010,
			"type":"SCALAR"
		},
		{
			"bufferView":18,
			"componentType":5126,
			"count":26050,
			"max":[
				0.09952527284622192,
				0.014259859919548035,
				4.0015363693237305
			],
			"min":[
				-0.09952610731124878,
				-0.024370118975639343,
				-301.0455322265625
			],
			"type":"VEC3"
		},
		{
			"bufferView":19,
			"componentType":5126,
			"count":26050,
			"type":"VEC3"
		},
		{
			"bufferView":20,
			"componentType":5126,
			"count":26050,
			"type":"VEC2"
		},
		{
			"bufferView":21,
			"componentType":5123,
			"count":100500,
			"type":"SCALAR"
		},
		{
			"bufferView":22,
			"componentType":5126,
			"count":2040,
			"max":[
				1,
				1,
				169
			],
			"min":[
				-1,
				-1,
				-1
			],
			"type":"VEC3"
		},
		{
			"bufferView":23,
			"componentType":5126,
			"count":2040,
			"type":"VEC3"
		},
		{
			"bufferView":24,
			"componentType":5126,
			"count":2040,
			"type":"VEC2"
		},
		{
			"bufferView":25,
			"componentType":5126,
			"count":2040,
			"type":"VEC4"
		},
		{
			"bufferView":26,
			"componentType":5123,
			"count":3060,
			"type":"SCALAR"
		},
		{
			"bufferView":27,
			"componentType":5126,
			"count":7200,
			"max":[
				1,
				26.19999885559082,
				1
			],
			"min":[
				-1,
				-1,
				-199
			],
			"type":"VEC3"
		},
		{
			"bufferView":28,
			"componentType":5126,
			"count":7200,
			"type":"VEC3"
		},
		{
			"bufferView":29,
			"componentType":5126,
			"count":7200,
			"type":"VEC2"
		},
		{
			"bufferView":30,
			"componentType":5126,
			"count":7200,
			"type":"VEC4"
		},
		{
			"bufferView":31,
			"componentType":5123,
			"count":10800,
			"type":"SCALAR"
		},
		{
			"bufferView":32,
			"componentType":5126,
			"count":24,
			"max":[
				1,
				1,
				1
			],
			"min":[
				-1,
				-1,
				-1
			],
			"type":"VEC3"
		},
		{
			"bufferView":33,
			"componentType":5126,
			"count":24,
			"type":"VEC3"
		},
		{
			"bufferView":34,
			"componentType":5126,
			"count":24,
			"type":"VEC2"
		},
		{
			"bufferView":35,
			"componentType":5126,
			"count":24,
			"type":"VEC4"
		},
		{
			"bufferView":36,
			"componentType":5123,
			"count":36,
			"type":"SCALAR"
		},
		{
			"bufferView":37,
			"componentType":5126,
			"count":170400,
			"max":[
				2,
				-0.0929611474275589,
				1
			],
			"min":[
				-2,
				-0.09993918240070343,
				-39
			],
			"type":"VEC3"
		},
		{
			"bufferView":38,
			"componentType":5126,
			"count":170400,
			"type":"VEC3"
		},
		{
			"bufferView":39,
			"componentType":5126,
			"count":170400,
			"type":"VEC2"
		},
		{
			"bufferView":40,
			"componentType":5126,
			"count":170400,
			"type":"VEC4"
		},
		{
			"bufferView":41,
			"componentType":5125,
			"count":991200,
			"type":"SCALAR"
		}
	],
	"bufferViews":[
		{
			"buffer":0,
			"byteLength":1509204,
			"byteOffset":0,
			"target":34962
		},
		{
			"buffer":0,
			"byteLength":1509204,
			"byteOffset":1509204,
			"target":34962
		},
		{
			"buffer":0,
			"byteLength":1006136,
			"byteOffset":3018408,
			"target":34962
		},
		{
			"buffer":0,
			"byteLength":70080,
			"byteOffset":4024544,
			"target":34963
		},
		{
			"buffer":0,
			"byteLength":1558680,
			"byteOffset":4094624,
			"target":34963
		},
		{
			"buffer":0,
			"byteLength":74880,
			"byteOffset":5653304,
			"target":34963
		},
		{
			"buffer":0,
			"byteLength":51840,
			"byteOffset":5728184,
			"target":34963
		},
		{
			"buffer":0,
			"byteLength":334776,
			"byteOffset":5780024,
			"target":34962
		},
		{
			"buffer":0,
			"byteLength":334776,
			"byteOffset":6114800,
			"target":34962
		},
		{
			"buffer":0,
			"byteLength":223184,
			"byteOffset":6449576,
			"target":34962
		},
		{
			"buffer":0,
			"byteLength":446368,
			"byteOffset":6672760,
			"target":34962
		},
		{
			"buffer":0,
			"byteLength":56160,
			"byteOffset":7119128,
			"target":34963
		},
		{
			"buffer":0,
			"byteLength":18240,
			"byteOffset":7175288,
			"target":34963
		},
		{
			"buffer":0,
			"byteLength":9600,
			"byteOffset":7193528,
			"target":34963
		},
		{
			"buffer":0,
			"byteLength":6252,
			"byteOffset":7203128,
			"target":34962
		},
		{
			"buffer":0,
			"byteLength":6252,
			"byteOffset":7209380,
			"target":34962
		},
		{
			"buffer":0,
			"byteLength":4168,
			"byteOffset":7215632,
			"target":34962
		},
		{
			"buffer":0,
			"byteLength":4020,
			"byteOffset":7219800,
			"target":34963
		},
		{
			"buffer":0,
			"byteLength":312600,
			"byteOffset":7223820,
			"target":34962
		},
		{
			"buffer":0,
			"byteLength":312600,
			"byteOffset":7536420,
			"target":34962
		},
		{
			"buffer":0,
			"byteLength":208400,
			"byteOffset":7849020,
			"target":34962
		},
		{
			"buffer":0,
			"byteLength":201000,
			"byteOffset":8057420,
			"target":34963
		},
		{
			"buffer":0,
			"byteLength":24480,
			"byteOffset":8258420,
			"target":34962
		},
		{
			"buffer":0,
			"byteLength":24480,
			"byteOffset":8282900,
			"target":34962
		},
		{
			"buffer":0,
			"byteLength":16320,
			"byteOffset":8307380,
			"target":34962
		},
		{
			"buffer":0,
			"byteLength":32640,
			"byteOffset":8323700,
			"target":34962
		},
		{
			"buffer":0,
			"byteLength":6120,
			"byteOffset":8356340,
			"target":34963
		},
		{
			"buffer":0,
			"byteLength":86400,
			"byteOffset":8362460,
			"target":34962
		},
		{
			"buffer":0,
			"byteLength":86400,
			"byteOffset":8448860,
			"target":34962
		},
		{
			"buffer":0,
			"byteLength":57600,
			"byteOffset":8535260,
			"target":34962
		},
		{
			"buffer":0,
			"byteLength":115200,
			"byteOffset":8592860,
			"target":34962
		},
		{
			"buffer":0,
			"byteLength":21600,
			"byteOffset":8708060,
			"target":34963
		},
		{
			"buffer":0,
			"byteLength":288,
			"byteOffset":8729660,
			"target":34962
		},
		{
			"buffer":0,
			"byteLength":288,
			"byteOffset":8729948,
			"target":34962
		},
		{
			"buffer":0,
			"byteLength":192,
			"byteOffset":8730236,
			"target":34962
		},
		{
			"buffer":0,
			"byteLength":384,
			"byteOffset":8730428,
			"target":34962
		},
		{
			"buffer":0,
			"byteLength":72,
			"byteOffset":8730812,
			"target":34963
		},
		{
			"buffer":0,
			"byteLength":2044800,
			"byteOffset":8730884,
			"target":34962
		},
		{
			"buffer":0,
			"byteLength":2044800,
			"byteOffset":10775684,
			"target":34962
		},
		{
			"buffer":0,
			"byteLength":1363200,
			"byteOffset":12820484,
			"target":34962
		},
		{
			"buffer":0,
			"byteLength":2726400,
			"byteOffset":14183684,
			"target":34962
		},
		{
			"buffer":0,
			"byteLength":3964800,
			"byteOffset":16910084,
			"target":34963
		}
	],
	"samplers":[
		{
			"magFilter":9729,
			"minFilter":9987
		}
	],
	"buffers":[
		{
			"byteLength":20874884,
			"uri":"scene.bin"
		}
	]
}
